<svg t="1711890711110" class="icon" viewBox="0 0 1024 1024" version="1.1" xmlns="http://www.w3.org/2000/svg" p-id="3977" width="72" height="72">
    <path d="M283.22 582.28m120 0l293.71 0q120 0 120 120l0 70.14q0 120-120 120l-293.71 0q-120 0-120-120l0-70.14q0-120 120-120Z" fill="#E9F1FF" p-id="3978"></path>
    <path d="M513 476.61c-100 0-181.39-81.37-181.39-181.39S413 113.83 513 113.83s181.39 81.38 181.39 181.39S613 476.61 513 476.61z m0-298.78a117.39 117.39 0 1 0 117.39 117.39A117.53 117.53 0 0 0 513 177.83zM180.18 908.64a32 32 0 0 1-32-32V748.28c0-62.3 24.86-121 70-165.26a238 238 0 0 1 167.64-68.38h260.73A239.18 239.18 0 0 1 827 596.57a32 32 0 1 1-48.24 42 175.23 175.23 0 0 0-132.17-60H385.82A174.4 174.4 0 0 0 263 628.72c-32.76 32.13-50.81 74.59-50.81 119.56v128.36a32 32 0 0 1-32.01 32zM885.18 765.88H713.62a32 32 0 0 1 0-64h171.56a32 32 0 0 1 0 64zM885.18 883.72H713.62a32 32 0 0 1 0-64h171.56a32 32 0 1 1 0 64z" fill="#2C5CCB" p-id="3979"></path>
</svg>