<svg t="1727253321070" class="icon" viewBox="0 0 1024 1024" version="1.1" xmlns="http://www.w3.org/2000/svg" p-id="6321" width="24" height="24">
    <path d="M850 140c15.273 0 30.116 4.851 42 14 32.22 23.106 39.451 67.59 17 100l-1 1-225.908 311.597A32 32 0 0 0 676 585.38v129.607a64 64 0 0 1-32.082 55.472l-185.01 106.452c-34.466 19.832-78.483 7.968-98.315-26.498A72 72 0 0 1 351 814.505v-227.07a32 32 0 0 0-6.152-18.864L116 255c-8.984-12.35-13.84-26.998-14-42v-1c0-39.285 31.576-71.353 71-72h677z m-676 64c-4.544 0.205-7.867 3.586-8 8 0.086 1.869 0.55 3.265 1 4l1 1 234.673 321.132A64 64 0 0 1 415 575.892V813.19a8 8 0 0 0 11.98 6.939l168.942-96.906A32 32 0 0 0 612 695.465V573.787a64 64 0 0 1 12.214-37.607L856 217h1v-1c1.966-3.078 1.2-7.739-2-10-1.563-1.395-3.085-1.926-5-2H174z" fill="#333333" p-id="6322"></path>
</svg>