<svg t="1713772601729" class="icon" viewBox="0 0 1024 1024" version="1.1" xmlns="http://www.w3.org/2000/svg" p-id="4233" width="72" height="72">
    <path d="M512 533.333333a117.333333 117.333333 0 1 1 117.333333-117.333333A117.333333 117.333333 0 0 1 512 533.333333z m0-170.666666a53.333333 53.333333 0 1 0 53.333333 53.333333A53.333333 53.333333 0 0 0 512 362.666667z" fill="#4E78FE" p-id="4234"></path>
    <path d="M544 469.333333m0 29.44l0 197.12q0 29.44-29.44 29.44l-5.12 0q-29.44 0-29.44-29.44l0-197.12q0-29.44 29.44-29.44l5.12 0q29.44 0 29.44 29.44Z" fill="#4E78FE" p-id="4235"></path>
    <path d="M512 565.333333m32 0l64 0q32 0 32 32l0 0q0 32-32 32l-64 0q-32 0-32-32l0 0q0-32 32-32Z" fill="#4E78FE" p-id="4236"></path>
    <path d="M512 154.026667l277.333333 110.506666v183.04c0 195.84-114.773333 367.36-277.333333 424.106667-162.56-56.746667-275.626667-228.266667-277.333333-424.106667V264.533333L512 154.026667m0-65.28a40.106667 40.106667 0 0 0-15.786667 2.986666l-298.666666 119.04a42.666667 42.666667 0 0 0-26.88 39.68v197.546667C172.8 682.666667 317.013333 881.92 512 938.666667c194.986667-56.746667 341.333333-256 341.333333-490.666667V250.453333a42.666667 42.666667 0 0 0-26.88-39.68l-298.666666-119.04a40.106667 40.106667 0 0 0-15.786667-2.986666z" fill="#444444" p-id="4237"></path>
</svg>