<svg class="icon" viewBox="0 0 1024 1024" version="1.1" xmlns="http://www.w3.org/2000/svg"
    width="200" height="200">
    <path
        d="M298.666667 341.333333m32 0l277.333333 0q32 0 32 32l0 0q0 32-32 32l-277.333333 0q-32 0-32-32l0 0q0-32 32-32Z"
        fill="#4E78FE" />
    <path
        d="M428.8 512h-98.133333a32 32 0 0 0 0 64h98.133333a32 32 0 0 0 0-64zM805.546667 358.826667l60.16 60.16-298.666667 298.666666-67.84 7.68 5.973333-66.133333 298.666667-298.666667m0-72.96a42.666667 42.666667 0 0 0-30.293333 12.373334l-320.853334 321.28a42.666667 42.666667 0 0 0-12.373333 26.026666l-8.96 99.84a42.666667 42.666667 0 0 0 42.666667 46.506667h3.84l99.84-8.96a42.666667 42.666667 0 0 0 26.026666-12.373333l321.28-320.853334a42.666667 42.666667 0 0 0 0-60.586666L835.84 298.666667a42.666667 42.666667 0 0 0-30.293333-12.373334z"
        fill="#444444" />
    <path
        d="M789.333333 650.666667v181.333333h-554.666666v-640h554.666666v32a32.426667 32.426667 0 0 0 32 32 32.426667 32.426667 0 0 0 32-32V170.666667a42.666667 42.666667 0 0 0-42.666666-42.666667H213.333333a42.666667 42.666667 0 0 0-42.666666 42.666667v682.666666a42.666667 42.666667 0 0 0 42.666666 42.666667h597.333334a42.666667 42.666667 0 0 0 42.666666-42.666667v-202.666666a32.426667 32.426667 0 0 0-32-32 32.426667 32.426667 0 0 0-32 32z"
        fill="#444444" />
</svg>