<svg t="1727234062735" class="icon" viewBox="0 0 1024 1024" version="1.1" xmlns="http://www.w3.org/2000/svg" p-id="5032" width="72" height="72">
    <path d="M511 65c247.424 0 448 200.576 448 448S758.424 961 511 961 63 760.424 63 513 263.576 65 511 65z m0 64c-212.077 0-384 171.923-384 384s171.923 384 384 384 384-171.923 384-384-171.923-384-384-384z m187 301c10.9 14.072 8.666 33.647-4.595 44.669L693 475 486.199 635.376c-20.949 16.246-51.1 12.434-67.346-8.515l-0.207-0.268L341 525c-10.182-14.44-7.395-34.499 7-45 13.658-10.698 33.467-8.073 44 6h1l62.114 82.51a8 8 0 0 0 11.3 1.505L653 425c14.366-11.116 34.466-8.569 45 5z" fill="#333333" p-id="5033"></path>
</svg>