<svg t="1728547055645" class="icon" viewBox="0 0 1024 1024" version="1.1" xmlns="http://www.w3.org/2000/svg" p-id="3430" width="72" height="72">
    <path d="M853.333333 128H170.666667a42.666667 42.666667 0 0 0-42.666667 42.666667v512a42.666667 42.666667 0 0 0 42.666667 42.666666h309.333333v106.666667H241.493333a28.586667 28.586667 0 0 0-28.16 28.16v7.68a28.586667 28.586667 0 0 0 28.16 28.16h541.013334a28.586667 28.586667 0 0 0 28.16-28.16v-7.68a28.586667 28.586667 0 0 0-28.16-28.16h-238.933334V725.333333H853.333333a42.666667 42.666667 0 0 0 42.666667-42.666666V170.666667a42.666667 42.666667 0 0 0-42.666667-42.666667z m-21.333333 533.333333h-640v-469.333333h640z" fill="#444444" p-id="3431"></path>
    <path d="M298.666667 565.333333a31.573333 31.573333 0 0 1-22.613334-10.666666 32 32 0 0 1 0-45.226667l128-128a32.426667 32.426667 0 0 1 40.533334-3.84l105.813333 70.826667L702.72 298.666667a32 32 0 0 1 45.226667 42.666666l-170.666667 170.666667a32.426667 32.426667 0 0 1-40.533333 3.84l-105.813334-69.546667L321.28 554.666667a31.573333 31.573333 0 0 1-22.613333 10.666666z" fill="#4E78FE" p-id="3432"></path>
</svg>