<svg t="1727252690489" class="icon" viewBox="0 0 1024 1024" version="1.1" xmlns="http://www.w3.org/2000/svg" p-id="3276" width="72" height="72">
    <path d="M832 192v640h-640v-640h640M853.333333 128H170.666667a42.666667 42.666667 0 0 0-42.666667 42.666667v682.666666a42.666667 42.666667 0 0 0 42.666667 42.666667h682.666666a42.666667 42.666667 0 0 0 42.666667-42.666667V170.666667a42.666667 42.666667 0 0 0-42.666667-42.666667z" fill="#444444" p-id="3277"></path>
    <path d="M661.333333 362.666667a42.666667 42.666667 0 1 1-42.666666 42.666666 42.666667 42.666667 0 0 1 42.666666-42.666666m0-64A106.666667 106.666667 0 1 0 768 405.333333 106.666667 106.666667 0 0 0 661.333333 298.666667z" fill="#4E78FE" p-id="3278"></path>
    <path d="M192 666.453333L346.026667 512l170.666666 134.826667 27.306667 21.76 32.853333-11.093334L682.666667 622.933333l149.333333 59.733334v42.666666H896v-85.333333l-213.333333-85.333333-128 42.666666-213.333334-170.666666-213.333333 213.333333v85.333333h64z" fill="#444444" p-id="3279"></path>
</svg>