<svg t="1723898990671" class="icon" viewBox="0 0 1024 1024" version="1.1" xmlns="http://www.w3.org/2000/svg" p-id="3277" width="72" height="72">
    <path d="M512 426.666667a128 128 0 1 0 128 128 128 128 0 0 0-128-128z m0 192a64 64 0 1 1 64-64 64 64 0 0 1-64 64z" fill="#4E78FE" p-id="3278"></path>
    <path d="M889.173333 625.066667A384 384 0 0 0 640 192a128 128 0 0 0-251.733333 0 378.453333 378.453333 0 0 0-126.293334 71.253333 384 384 0 0 0-128 361.813334A128 128 0 0 0 213.333333 853.333333a122.88 122.88 0 0 0 46.933334-9.386666 384 384 0 0 0 501.76 0h2.133333A128 128 0 0 0 938.666667 725.333333a128 128 0 0 0-49.493334-100.266666z m-426.666666-450.56A64 64 0 0 1 576 213.333333a56.746667 56.746667 0 0 1-6.4 26.88A63.146667 63.146667 0 0 1 512 277.333333 64 64 0 0 1 448 213.333333a61.44 61.44 0 0 1 13.653333-38.826666zM267.093333 760.32A64 64 0 0 1 213.333333 789.333333h-5.12A63.573333 63.573333 0 0 1 149.333333 725.333333a67.84 67.84 0 0 1 6.4-27.733333 64 64 0 0 1 55.04-35.84H213.333333A64 64 0 0 1 277.333333 725.333333a65.706667 65.706667 0 0 1-10.24 34.986667zM512 874.666667a320 320 0 0 1-199.253333-69.973334A128 128 0 0 0 341.333333 725.333333a128 128 0 0 0-128-128 128 128 0 0 0-17.92 0 319.573333 319.573333 0 0 1 108.373334-285.44A310.613333 310.613333 0 0 1 392.533333 258.133333a128 128 0 0 0 238.933334 0 319.146667 319.146667 0 0 1 197.12 341.333334 128 128 0 0 0-117.333334 205.653333A319.146667 319.146667 0 0 1 512 874.666667z m304.213333-85.333334H810.666667a64.426667 64.426667 0 0 1-53.76-29.44A64 64 0 0 1 810.666667 661.333333h2.56a64 64 0 0 1 55.04 35.84 67.84 67.84 0 0 1 6.4 27.733334 64 64 0 0 1-58.453334 64z" fill="#444444" p-id="3279"></path>
</svg>