<svg t="1713771978865" class="icon" viewBox="0 0 1024 1024" version="1.1" xmlns="http://www.w3.org/2000/svg" p-id="3916" width="72" height="72">
    <path d="M608 640h-320a32 32 0 0 0 0 64h320a32 32 0 0 0 0-64z" fill="#444444" p-id="3917"></path>
    <path d="M437.333333 341.333333a32.426667 32.426667 0 0 0-32 32v72.106667L310.613333 350.72A26.88 26.88 0 0 0 298.666667 343.893333a31.146667 31.146667 0 0 0-24.746667 0 31.573333 31.573333 0 0 0-17.066667 17.066667 30.72 30.72 0 0 0-0.853333 12.373333v149.333334a32 32 0 0 0 64 0v-72.106667l94.72 94.72a31.146667 31.146667 0 0 0 22.613333 9.386667 32.426667 32.426667 0 0 0 32-32v-149.333334a32.426667 32.426667 0 0 0-32-32z" fill="#4E78FE" p-id="3918"></path>
    <path d="M608 341.333333h-64a32 32 0 0 0 0 64h64a32 32 0 0 0 0-64zM608 490.666667h-64a32 32 0 0 0 0 64h64a32 32 0 0 0 0-64z" fill="#444444" p-id="3919"></path>
    <path d="M853.333333 298.666667h-85.333333V170.666667a42.666667 42.666667 0 0 0-42.666667-42.666667H170.666667a42.666667 42.666667 0 0 0-42.666667 42.666667v682.666666a42.666667 42.666667 0 0 0 42.666667 42.666667h682.666666a42.666667 42.666667 0 0 0 42.666667-42.666667V341.333333a42.666667 42.666667 0 0 0-42.666667-42.666666z m-149.333333 533.333333h-512v-640h512z m128 0H768v-469.333333h64z" fill="#444444" p-id="3920"></path>
</svg>