<svg t="1713770342276" class="icon" viewBox="0 0 1024 1024" version="1.1" xmlns="http://www.w3.org/2000/svg" p-id="3758" width="72" height="72">
    <path d="M375.466667 557.653333A45.653333 45.653333 0 1 0 421.12 512a45.653333 45.653333 0 0 0-45.653333 45.653333zM530.346667 557.653333A45.653333 45.653333 0 1 0 576 512a45.653333 45.653333 0 0 0-45.653333 45.653333zM685.226667 557.653333A45.653333 45.653333 0 1 0 730.88 512a45.653333 45.653333 0 0 0-45.653333 45.653333z" fill="#4E78FE" p-id="3759"></path>
    <path d="M149.333333 618.666667v-384h597.333334V298.666667H810.666667V206.933333a36.266667 36.266667 0 0 0-36.266667-36.266666H121.6a36.266667 36.266667 0 0 0-36.266667 36.266666v439.466667a36.266667 36.266667 0 0 0 36.266667 36.266667H213.333333v-64z" fill="#444444" p-id="3760"></path>
    <path d="M902.4 298.666667H249.6a36.266667 36.266667 0 0 0-36.266667 36.266666v439.466667a36.266667 36.266667 0 0 0 36.266667 36.266667h221.866667l78.08 74.666666a37.973333 37.973333 0 0 0 52.906666 0L682.666667 810.666667h221.866666a36.266667 36.266667 0 0 0 36.266667-36.266667V334.933333a36.266667 36.266667 0 0 0-38.4-36.266666z m-27.733333 448h-219.733334l-18.346666 17.92-60.586667 57.6-60.586667-57.6-18.346666-17.92H277.333333v-384h597.333334z" fill="#444444" p-id="3761"></path>
</svg>