<svg t="1713680030836" class="icon" viewBox="0 0 1024 1024" version="1.1" xmlns="http://www.w3.org/2000/svg" p-id="4238" width="72" height="72">
    <path d="M832 277.333333v554.666667h-640v-554.666667h640M853.333333 213.333333H170.666667a42.666667 42.666667 0 0 0-42.666667 42.666667v597.333333a42.666667 42.666667 0 0 0 42.666667 42.666667h682.666666a42.666667 42.666667 0 0 0 42.666667-42.666667V256a42.666667 42.666667 0 0 0-42.666667-42.666667z" fill="#444444" p-id="4239"></path>
    <path d="M256 128m32 0l0 0q32 0 32 32l0 149.333333q0 32-32 32l0 0q-32 0-32-32l0-149.333333q0-32 32-32Z" fill="#444444" p-id="4240"></path>
    <path d="M704 128m32 0l0 0q32 0 32 32l0 149.333333q0 32-32 32l0 0q-32 0-32-32l0-149.333333q0-32 32-32Z" fill="#444444" p-id="4241"></path>
    <path d="M128 426.666667h768v64H128z" fill="#444444" p-id="4242"></path>
    <path d="M669.44 564.053333a32 32 0 0 0-45.226667 0l-130.133333 128-55.466667-52.053333a32 32 0 1 0-45.226666 42.666667l78.08 78.08a31.573333 31.573333 0 0 0 45.226666 0l152.746667-152.746667a31.573333 31.573333 0 0 0 0-43.946667z" fill="#4E78FE" p-id="4243"></path>
</svg>