<svg t="1713770069886" class="icon" viewBox="0 0 1024 1024" version="1.1" xmlns="http://www.w3.org/2000/svg" p-id="3281" width="72" height="72">
    <path d="M2.56 19.626667A30.72 30.72 0 0 0 0 32 30.72 30.72 0 0 1 2.56 19.626667zM0 32z" fill="#444444" p-id="3282"></path>
    <path d="M774.826667 533.76a32 32 0 0 1-21.333334-38.4 329.386667 329.386667 0 0 0-5.546666-159.146667 32.853333 32.853333 0 0 1 20.053333-40.106666 32.426667 32.426667 0 0 1 42.666667 19.626666 390.4 390.4 0 0 1 4.693333 196.266667 31.146667 31.146667 0 0 1-40.533333 21.76z" fill="#4E78FE" p-id="3283"></path>
    <path d="M426.666667 193.28A234.24 234.24 0 0 1 642.56 512l-15.36 38.826667 29.44 29.866666 159.573333 159.573334a52.906667 52.906667 0 1 1-75.093333 75.093333l-157.866667-157.866667-30.293333-29.866666-39.68 16.213333a238.08 238.08 0 0 1-90.026667 17.493333 227.84 227.84 0 0 1-133.12-42.666666 234.666667 234.666667 0 0 1-95.573333-239.36L298.666667 485.12a68.693333 68.693333 0 0 0 48.213333 20.053333 69.546667 69.546667 0 0 0 48.64-20.053333l85.333333-85.333333a67.84 67.84 0 0 0 14.506667-72.96 91.306667 91.306667 0 0 0-19.626667-28.16L375.893333 198.4A229.546667 229.546667 0 0 1 426.666667 193.28M426.666667 128a301.653333 301.653333 0 0 0-102.826667 17.92 42.666667 42.666667 0 0 0-16.64 70.826667l125.44 125.44c7.68 7.68 7.253333 10.24 5.546667 11.946666l-85.333334 85.333334a3.413333 3.413333 0 0 1-2.986666 0 4.693333 4.693333 0 0 1-2.986667 0L213.333333 308.48a42.666667 42.666667 0 0 0-29.866666-12.373333 42.666667 42.666667 0 0 0-42.666667 29.44 298.666667 298.666667 0 0 0 109.226667 347.306666 298.666667 298.666667 0 0 0 285.013333 30.72l157.866667 157.866667a116.906667 116.906667 0 0 0 165.546666-165.546667l-159.146666-159.573333A298.666667 298.666667 0 0 0 426.666667 128z" fill="#444444" p-id="3284"></path>
</svg>