<svg t="1713770185113" class="icon" viewBox="0 0 1024 1024" version="1.1" xmlns="http://www.w3.org/2000/svg" p-id="3599" width="72" height="72">
    <path d="M704 192v197.546667l-32.426667-18.346667-31.573333-18.346667-31.573333 18.346667-32.426667 18.346667V192h128M751.786667 128h-223.573334a16.213333 16.213333 0 0 0-16.213333 16.213333v330.24a16.213333 16.213333 0 0 0 16.213333 16.213334L640 426.666667l111.786667 64a16.213333 16.213333 0 0 0 16.213333-16.213334V144.213333a16.213333 16.213333 0 0 0-16.213333-16.213333z" fill="#4E78FE" p-id="3600"></path>
    <path d="M832 192v640h-640v-640h640M853.333333 128H170.666667a42.666667 42.666667 0 0 0-42.666667 42.666667v682.666666a42.666667 42.666667 0 0 0 42.666667 42.666667h682.666666a42.666667 42.666667 0 0 0 42.666667-42.666667V170.666667a42.666667 42.666667 0 0 0-42.666667-42.666667z" fill="#444444" p-id="3601"></path>
</svg>