<svg t="1713770146112" class="icon" viewBox="0 0 1024 1024" version="1.1" xmlns="http://www.w3.org/2000/svg" p-id="3441" width="72" height="72">
    <path d="M544 512m0 29.44l0 197.12q0 29.44-29.44 29.44l-5.12 0q-29.44 0-29.44-29.44l0-197.12q0-29.44 29.44-29.44l5.12 0q29.44 0 29.44 29.44Z" fill="#4E78FE" p-id="3442"></path>
    <path d="M832 448v384h-640v-384h640M853.333333 384H170.666667a42.666667 42.666667 0 0 0-42.666667 42.666667v426.666666a42.666667 42.666667 0 0 0 42.666667 42.666667h682.666666a42.666667 42.666667 0 0 0 42.666667-42.666667V426.666667a42.666667 42.666667 0 0 0-42.666667-42.666667z" fill="#444444" p-id="3443"></path>
    <path d="M334.08 411.733333c-17.92 0-32 28.16-32 10.666667V341.333333A213.333333 213.333333 0 0 1 725.333333 298.666667a32 32 0 0 1-24.746666 37.973333 32.426667 32.426667 0 0 1-37.973334-25.173333 149.333333 149.333333 0 0 0-296.533333 29.866666v81.066667c0 17.493333-14.506667-10.666667-32-10.666667z" fill="#444444" p-id="3444"></path>
</svg>