<?xml version="1.0" encoding="UTF-8"?>
<svg id="uuid-7267845c-2366-40d4-9399-8469a03f66bb" data-name="图层 2" xmlns="http://www.w3.org/2000/svg" viewBox="0 0 24 24">
  <path d="M9.76,11.07c.81,1.72,1.62,3.72,2.34,5.99,.78,2.44,1.28,4.7,1.62,6.69" style="fill: none; stroke: #000; stroke-miterlimit: 10;"/>
  <path d="M3.51,17.74c1.1-.77,2.31-1.55,3.62-2.32,1.26-.75,2.49-1.41,3.65-2" style="fill: none; stroke: #000; stroke-miterlimit: 10;"/>
  <path d="M2.79,23.46c-.1-.68-.17-1.51-.14-2.44l.04-1.18c.22-.99,1.02-2.95,1.79-4.34l1.2-1.39,.51-.59c.55-.53,.83-.92,.61-.86l-.29,.02c-.21,.01-2.01,.12-3.08-1.23-1.09-1.36-.55-3.1-.44-3.45,.51-1.64,1.85-2.4,2.15-2.57" style="fill: none; stroke: #000; stroke-miterlimit: 10;"/>
  <path d="M21.67,17.92c-.1,.12-1.54,1.75-3.64,1.46-1.56-.22-2.56-1.36-2.99-2.18-.71-1.34-.62-2.5-.62-2.51,.07-.95,.03-1.05-.13-1.58-.1-.36-.36-1.02-1.71-2.22-.98-.87-1.85-1.39-2.63-1.9-2.07-1.35-2.22-1.39-2.93-1.9-.76-.53-1.83-1.36-3.04-2.55h0s.1-.53,.22-1.16l.27-.27c.4-.4,1.18-.35,2.72-.24,.58,.04,.85,.09,1.11-.1,.37-.27,.29-.7,.73-1.17,0,0,.27-.29,.78-.49,1.2-.48,3.63,.43,4.13,2.04,.19,.62-.13,1.54-.79,3.36-.39,1.08-.77,1.97-1.05,2.6l.16-.06c.29-.1,1.16-.39,1.92-.64h.59c.9-.02,1.95,.45,2.53,1.25,.73,1,.25,1.88,1.05,2.53,.47,.39,1.08,.44,1.43,.41,1.28-.12,2.47-1.77,2.79-4.12" style="fill: none; stroke: #000; stroke-miterlimit: 10;"/>
</svg>