<svg t="1728547114997" class="icon" viewBox="0 0 1024 1024" version="1.1" xmlns="http://www.w3.org/2000/svg" p-id="3660" width="72" height="72">
    <path d="M714.666667 346.453333h-277.333334a32.426667 32.426667 0 0 0-32 32.426667 32 32 0 0 0 32 31.573333h277.333334a32 32 0 0 0 32-31.573333 32.426667 32.426667 0 0 0-32-32.426667z" fill="#444444" p-id="3661"></path>
    <path d="M405.333333 474.453333m32 0l277.333334 0q32 0 32 32l0 0q0 32-32 32l-277.333334 0q-32 0-32-32l0 0q0-32 32-32Z" fill="#4E78FE" p-id="3662"></path>
    <path d="M874.666667 646.4V170.666667a42.666667 42.666667 0 0 0-42.666667-42.666667h-512a42.666667 42.666667 0 0 0-42.666667 42.666667h-85.333333a42.666667 42.666667 0 0 0-42.666667 42.666666v433.066667A42.666667 42.666667 0 0 0 128 682.666667v170.666666a42.666667 42.666667 0 0 0 42.666667 42.666667h682.666666a42.666667 42.666667 0 0 0 42.666667-42.666667v-170.666666a42.666667 42.666667 0 0 0-21.333333-36.266667zM810.666667 192V640h-151.466667a42.666667 42.666667 0 0 0-37.12 21.333333 128 128 0 0 1-220.16 0 42.666667 42.666667 0 0 0-37.12-21.333333H341.333333V192z m-533.333334 42.666667V640H213.333333V234.666667z m554.666667 597.333333h-640v-128h160.853333a191.146667 191.146667 0 0 0 318.293334 0h160.853333z" fill="#444444" p-id="3663"></path>
</svg>