<svg t="1713679514283" class="icon" viewBox="0 0 1024 1024" version="1.1" xmlns="http://www.w3.org/2000/svg" p-id="3932" width="72" height="72">
    <path d="M672 298.666667h-277.333333a32 32 0 0 0 0 64h277.333333a32 32 0 0 0 0-64z" fill="#444444" p-id="3933"></path>
    <path d="M362.666667 469.333333m32 0l277.333333 0q32 0 32 32l0 0q0 32-32 32l-277.333333 0q-32 0-32-32l0 0q0-32 32-32Z" fill="#4E78FE" p-id="3934"></path>
    <path d="M672 640h-277.333333a32 32 0 0 0 0 64h277.333333a32 32 0 0 0 0-64z" fill="#444444" p-id="3935"></path>
    <path d="M853.333333 128H213.333333a42.666667 42.666667 0 0 0-42.666666 42.666667v128h-10.666667a32 32 0 0 0 0 64H170.666667v298.666666h-10.666667a32 32 0 0 0 0 64H170.666667v128a42.666667 42.666667 0 0 0 42.666666 42.666667h640a42.666667 42.666667 0 0 0 42.666667-42.666667V170.666667a42.666667 42.666667 0 0 0-42.666667-42.666667z m-21.333333 704h-597.333333V725.333333h10.666666a32 32 0 0 0 0-64H234.666667v-298.666666h10.666666a32 32 0 0 0 0-64H234.666667V192h597.333333z" fill="#444444" p-id="3936"></path>
</svg>