<svg t="1713680149639" class="icon" viewBox="0 0 1024 1024" version="1.1" xmlns="http://www.w3.org/2000/svg" p-id="4545" width="72" height="72">
    <path d="M697.173333 426.666667H326.826667a27.733333 27.733333 0 0 0-28.16 28.16v7.68a27.733333 27.733333 0 0 0 28.16 28.16h370.346666a27.733333 27.733333 0 0 0 28.16-28.16v-7.68a27.733333 27.733333 0 0 0-28.16-28.16z" fill="#444444" p-id="4546"></path>
    <path d="M298.666667 597.333333m32 0l192 0q32 0 32 32l0 0q0 32-32 32l-192 0q-32 0-32-32l0 0q0-32 32-32Z" fill="#4E78FE" p-id="4547"></path>
    <path d="M810.666667 149.333333h-128v-11.946666A52.053333 52.053333 0 0 0 630.613333 85.333333H393.386667A52.053333 52.053333 0 0 0 341.333333 137.386667v11.946666H213.333333a42.666667 42.666667 0 0 0-42.666666 42.666667V896a42.666667 42.666667 0 0 0 42.666666 42.666667h597.333334a42.666667 42.666667 0 0 0 42.666666-42.666667V190.293333a42.666667 42.666667 0 0 0-42.666666-40.96z m-405.333334 0h213.333334V213.333333h-213.333334z m384 725.333334h-554.666666V213.333333H341.333333v11.946667A52.053333 52.053333 0 0 0 393.386667 277.333333h237.226666A52.053333 52.053333 0 0 0 682.666667 225.28V213.333333h106.666666z" fill="#444444" p-id="4548"></path>
</svg>