<svg t="1713686129112" class="icon" viewBox="0 0 1024 1024" version="1.1" xmlns="http://www.w3.org/2000/svg" p-id="1522" width="72" height="72">
    <path d="M832 192v640h-640v-640h640M853.333333 128H170.666667a42.666667 42.666667 0 0 0-42.666667 42.666667v682.666666a42.666667 42.666667 0 0 0 42.666667 42.666667h682.666666a42.666667 42.666667 0 0 0 42.666667-42.666667V170.666667a42.666667 42.666667 0 0 0-42.666667-42.666667z" fill="#444444" p-id="1523"></path>
    <path d="M650.666667 687.786667h-277.333334a32.426667 32.426667 0 0 0-32 32.426666 32 32 0 0 0 32 31.573334h277.333334a32 32 0 0 0 32-31.573334 32.426667 32.426667 0 0 0-32-32.426666z" fill="#444444" p-id="1524"></path>
    <path d="M357.546667 407.04a31.573333 31.573333 0 0 0 42.666666 8.96l78.08-52.053333v240.64a29.866667 29.866667 0 0 0 30.293334 29.866666H512a29.866667 29.866667 0 0 0 30.293333-29.866666V363.946667l78.08 52.053333a31.573333 31.573333 0 0 0 42.666667-8.96 32 32 0 0 0-8.533333-42.666667l-128-85.333333a31.573333 31.573333 0 0 0-35.84 0l-128 85.333333a32 32 0 0 0-5.12 42.666667z" fill="#4E78FE" p-id="1525"></path>
</svg>