<svg t="1713680080582" class="icon" viewBox="0 0 1024 1024" version="1.1" xmlns="http://www.w3.org/2000/svg" p-id="4393" width="72" height="72">
    <path d="M853.333333 213.333333h-85.333333V160a32 32 0 0 0-64 0V213.333333h-384V160a32 32 0 0 0-64 0V213.333333H170.666667a42.666667 42.666667 0 0 0-42.666667 42.666667v597.333333a42.666667 42.666667 0 0 0 42.666667 42.666667h682.666666a42.666667 42.666667 0 0 0 42.666667-42.666667V256a42.666667 42.666667 0 0 0-42.666667-42.666667z m-21.333333 618.666667h-640v-341.333333h640z m0-405.333333h-640V277.333333H256v32a32 32 0 0 0 64 0V277.333333h384v32a32 32 0 0 0 64 0V277.333333h64z" fill="#444444" p-id="4394"></path>
    <path d="M480 768m0-29.013333l0-155.306667q0-29.013333 29.013333-29.013333l5.973334 0q29.013333 0 29.013333 29.013333l0 155.306667q0 29.013333-29.013333 29.013333l-5.973334 0q-29.013333 0-29.013333-29.013333Z" fill="#4E78FE" p-id="4395"></path>
</svg>