<svg t="1713772034468" class="icon" viewBox="0 0 1024 1024" version="1.1" xmlns="http://www.w3.org/2000/svg" p-id="4075" width="72" height="72">
    <path d="M874.666667 234.666667v469.333333H428.8l-15.36 8.96-136.106667 62.293333V704h-128v-469.333333h725.333334M896 170.666667H128a42.666667 42.666667 0 0 0-42.666667 42.666666v512a42.666667 42.666667 0 0 0 42.666667 42.666667h85.333333v42.666667a42.666667 42.666667 0 0 0 42.666667 42.666666 47.786667 47.786667 0 0 0 23.893333-6.4L445.866667 768H896a42.666667 42.666667 0 0 0 42.666667-42.666667V213.333333a42.666667 42.666667 0 0 0-42.666667-42.666666z" fill="#444444" p-id="4076"></path>
    <path d="M256 512m32 0l234.666667 0q32 0 32 32l0 0q0 32-32 32l-234.666667 0q-32 0-32-32l0 0q0-32 32-32Z" fill="#4E78FE" p-id="4077"></path>
    <path d="M737.28 341.333333H286.72a30.72 30.72 0 0 0-30.72 30.72v2.56a30.72 30.72 0 0 0 30.72 30.72h450.56a30.72 30.72 0 0 0 30.72-30.72v-2.56a30.72 30.72 0 0 0-30.72-30.72z" fill="#444444" p-id="4078"></path>
</svg>