<svg t="1726915120628" class="icon" viewBox="0 0 1024 1024" version="1.1" xmlns="http://www.w3.org/2000/svg" p-id="6463" width="72" height="72">
    <path d="M256 341.333333m30.293333 0l323.413334 0q30.293333 0 30.293333 30.293334l0 3.413333q0 30.293333-30.293333 30.293333l-323.413334 0q-30.293333 0-30.293333-30.293333l0-3.413333q0-30.293333 30.293333-30.293334Z" fill="#4E78FE" p-id="6464"></path>
    <path d="M482.56 512H285.44a29.44 29.44 0 0 0-29.44 29.44v5.12a29.44 29.44 0 0 0 29.44 29.44h197.12a29.44 29.44 0 0 0 29.44-29.44v-5.12a29.44 29.44 0 0 0-29.44-29.44z" fill="#444444" p-id="6465"></path>
    <path d="M192 832v-640h512v245.333333a32.426667 32.426667 0 0 0 32 32 32.426667 32.426667 0 0 0 32-32V170.666667a42.666667 42.666667 0 0 0-42.666667-42.666667H170.666667a42.666667 42.666667 0 0 0-42.666667 42.666667v682.666666a42.666667 42.666667 0 0 0 42.666667 42.666667h309.333333a32.426667 32.426667 0 0 0 32-32 32.426667 32.426667 0 0 0-32-32z" fill="#444444" p-id="6466"></path>
    <path d="M800.426667 743.253333a128 128 0 1 0-150.186667 0 170.666667 170.666667 0 0 0-91.306667 115.2 31.573333 31.573333 0 0 0 31.573334 37.546667 32 32 0 0 0 31.146666-24.746667 106.666667 106.666667 0 0 1 207.36 0 32 32 0 0 0 31.146667 24.746667 31.573333 31.573333 0 0 0 31.573333-37.546667 170.666667 170.666667 0 0 0-91.306666-115.2zM725.333333 576a64 64 0 1 1-64 64 64 64 0 0 1 64-64z" fill="#444444" p-id="6467"></path>
</svg>