<svg t="1713773020993" class="icon" viewBox="0 0 1024 1024" version="1.1" xmlns="http://www.w3.org/2000/svg" p-id="4392" width="72" height="72">
    <path d="M352 314.88a32 32 0 0 0-32 31.573333v331.093334a32 32 0 0 0 64 0V346.453333a32 32 0 0 0-32-31.573333zM458.666667 528.213333a32 32 0 0 0-32 31.573334v117.76a32 32 0 0 0 64 0v-117.76a32 32 0 0 0-32-31.573334z" fill="#444444" p-id="4393"></path>
    <path d="M533.333333 709.546667m0-32l0-245.333334q0-32 32-32l0 0q32 0 32 32l0 245.333334q0 32-32 32l0 0q-32 0-32-32Z" fill="#4E78FE" p-id="4394"></path>
    <path d="M640 709.546667m0-32l0-74.666667q0-32 32-32l0 0q32 0 32 32l0 74.666667q0 32-32 32l0 0q-32 0-32-32Z" fill="#4E78FE" p-id="4395"></path>
    <path d="M832 192v640h-640v-640h640M853.333333 128H170.666667a42.666667 42.666667 0 0 0-42.666667 42.666667v682.666666a42.666667 42.666667 0 0 0 42.666667 42.666667h682.666666a42.666667 42.666667 0 0 0 42.666667-42.666667V170.666667a42.666667 42.666667 0 0 0-42.666667-42.666667z" fill="#444444" p-id="4396"></path>
</svg>