<svg t="1711887061628" class="icon" viewBox="0 0 1024 1024" version="1.1" xmlns="http://www.w3.org/2000/svg" p-id="4820" width="72" height="72">
    <path d="M455.036 369.325L751.22 665.511 602.73 814.003a118.83 118.83 0 0 1-168.093 0.043L222.503 601.914a136.17 136.17 0 0 1-0.02-192.61l39.98-39.979a136.17 136.17 0 0 1 192.573 0z" fill="#E9F1FF" p-id="4821"></path>
    <path d="M512 894.52a142.57 142.57 0 0 1-101.14-41.83L177.42 619.23A32 32 0 0 1 222.67 574l233.47 233.44a79.13 79.13 0 0 0 111.77 0L859.35 516c61.46-61.46 61.46-161.47 0-222.93l-43.79-43.79a157.64 157.64 0 0 0-222.93 0L540 301.87a32 32 0 0 1-45.25-45.25l52.6-52.6a221.62 221.62 0 0 1 313.44 0l43.79 43.79a221.65 221.65 0 0 1 0 313.44L613.16 852.69A142.56 142.56 0 0 1 512 894.52z" fill="#2C5CCB" p-id="4822"></path>
    <path d="M511.77 894.52a142.56 142.56 0 0 1-101.14-41.83L119.18 561.25a221.65 221.65 0 0 1 0-313.44L163 204a221.62 221.62 0 0 1 313.44 0l370 370a32 32 0 0 1 0 45.25L612.91 852.69a142.57 142.57 0 0 1-101.14 41.83zM319.69 203.1a156.61 156.61 0 0 0-111.46 46.17l-43.79 43.79C103 354.52 103 454.53 164.44 516l291.44 291.44a79.13 79.13 0 0 0 111.77 0L778.49 596.6 431.16 249.27a156.63 156.63 0 0 0-111.47-46.17z" fill="#2C5CCB" p-id="4823"></path>
    <path d="M713.61 738.74a31.91 31.91 0 0 1-22.61-9.38l-153.8-153.8a32 32 0 1 1 45.26-45.25l153.8 153.8a32 32 0 0 1-22.63 54.63zM621.9 830.45a31.91 31.91 0 0 1-22.63-9.38l-153.8-153.8A32 32 0 0 1 490.73 622l153.8 153.8a32 32 0 0 1-22.63 54.63z" fill="#2C5CCB" p-id="4824"></path>
</svg>