<svg t="1711887393033" class="icon" viewBox="0 0 1024 1024" version="1.1" xmlns="http://www.w3.org/2000/svg" p-id="4983" width="72" height="72">
    <path d="M235.542395 748.593079a216.36 382.44 55.62 1 0 631.263616-431.911635 216.36 382.44 55.62 1 0-631.263616 431.911635Z" fill="#E9F1FF" p-id="4984"></path>
    <path d="M392 951.65a33.4 33.4 0 0 1-4.09-0.26 32 32 0 0 1-27.7-35.79l107.43-843a32 32 0 0 1 31.74-28h0.19a32 32 0 0 1 31.6 28.4L623 867.77a32 32 0 0 1-63.58 7.34L497.83 342 423.7 923.69a32 32 0 0 1-31.7 27.96z" fill="#2C5CCB" p-id="4985"></path>
    <path d="M577.3 770.71a32 32 0 0 1-14.86-60.36 725.94 725.94 0 0 0 68-40.49c46.09-31 87.32-66.06 122.54-104.3 33.63-36.51 60.3-74.24 79.27-112.13 18.31-36.58 28.41-71.19 30-102.86 1.52-30.36-5-56.6-19.38-78-18.22-27.12-48-45.3-88.44-54-42.07-9.07-93.55-7.05-148.9 5.83A32 32 0 1 1 591 162c64.49-15 125.66-17.11 176.9-6.06 56.4 12.16 100.69 40.14 128.07 80.91 22.26 33.12 32.41 72.46 30.18 116.91-2 40.58-14.39 83.75-36.69 128.3C845.25 570.37 765.92 655.92 666.1 723a791.37 791.37 0 0 1-74 44.08 31.85 31.85 0 0 1-14.8 3.63zM327 441.56L341.12 457a19.39 19.39 0 0 0 15.26 6l22.55-1.16c11.81-0.61 19.44 10.78 12.92 19.27l-12.46 16.23a13.69 13.69 0 0 0-1.65 14.34l8.48 18.24c4.44 9.54-5.63 19.23-17 16.4l-21.79-5.42a20 20 0 0 0-16.28 2.92l-17.36 12.38c-9.06 6.51-22.91 1.11-23.44-9.13l-1-19.58c-0.26-5.1-3.41-9.79-8.4-12.54l-19.21-10.55c-10-5.53-8.53-18.55 2.55-22l21.17-6.68c5.51-1.74 9.66-5.73 11.08-10.67L302 446c2.86-9.88 17.64-12.53 25-4.44zM224.52 382.92l3.08 10.24a7.3 7.3 0 0 0 6.09 5l11.57 1.84c6.05 0.95 6.94 8.19 1.5 12.26L236.37 420a10.67 10.67 0 0 0-4.51 7.89l-0.45 11.19c-0.23 5.86-7.75 10.2-12.72 7.36L209.2 441a10.08 10.08 0 0 0-8.89-0.15L188.47 446c-6.19 2.67-11.73-1.89-9.36-7.71l4.52-11.13a7.64 7.64 0 0 0-1-8l-6.87-8c-3.59-4.21 0.5-11.37 6.93-12.12l12.31-1.49a12.34 12.34 0 0 0 8.28-4.79l7.6-10.06c3.97-5.27 12.04-5.14 13.64 0.22zM145.83 578.26l3.91 12a8.45 8.45 0 0 0 6.9 5.8l12.65 1.94c6.62 1 8 9.52 2.32 14.41l-10.85 9.32a12.46 12.46 0 0 0-4.45 9.37l0.14 13.19c0.07 6.89-7.84 12.15-13.39 8.89l-10.61-6.23a10.15 10.15 0 0 0-9.65 0l-12.57 6.21c-6.58 3.26-12.84-2-10.59-8.9l4.28-13.18a9.7 9.7 0 0 0-1.51-9.38l-7.9-9.34c-4.14-4.89-0.1-13.4 6.84-14.4l13.26-1.96a12.74 12.74 0 0 0 8.72-5.79l7.68-12c3.99-6.21 12.78-6.21 14.82 0.05zM304.47 715.32l5.95 14.6a11.51 11.51 0 0 0 9.1 7.05l15.9 2.34c8.33 1.22 10.8 11.58 4.19 17.52L327 768.19a13.9 13.9 0 0 0-4.69 11.41l1.38 16c0.72 8.39-8.64 14.8-15.84 10.83l-13.76-7.57a12.9 12.9 0 0 0-12 0L267 806.47c-7.87 4-16.14-2.44-14-10.83l4.13-16a12.09 12.09 0 0 0-2.73-11.41l-10.68-11.36c-5.58-5.94-1.33-16.3 7.2-17.52l16.36-2.35a14.45 14.45 0 0 0 10.31-7.05l8.45-14.6c4.43-7.66 15.32-7.66 18.43-0.03zM353.26 263.82l1.41 6.69a4.17 4.17 0 0 0 3.71 3.24l7.5 1.1c3.93 0.57 4.08 5.32 0.26 8l-7.29 5.18a8 8 0 0 0-3.44 5.22l-1 7.35c-0.5 3.84-5.7 6.76-8.8 4.93l-5.92-3.48a6.59 6.59 0 0 0-5.84 0l-8.09 3.45c-4.23 1.8-7.6-1.14-5.7-5l3.63-7.34a4.86 4.86 0 0 0-0.17-5.23l-4-5.22c-2.12-2.73 1-7.46 5.28-8l8.17-1.05a9.28 9.28 0 0 0 5.73-3.21l5.59-6.68c2.93-3.47 8.23-3.45 8.97 0.05z" fill="#2C5CCB" p-id="4986"></path>
</svg>