<?xml version="1.0" encoding="UTF-8"?><svg id="_图层_1" xmlns="http://www.w3.org/2000/svg" viewBox="0 0 702.34 684.3"><path d="M443.02,684.3c-131.35,0-241.91-18.21-319.8-52.66-37.81-16.73-67.52-37.05-88.29-60.42C13.37,546.98,1.79,520.03,.53,491.18l32.75-1.47c.93,21.16,9.74,41.26,26.18,59.73,17.6,19.84,43.57,37.41,77.06,52.22,73.75,32.62,179.75,49.86,306.54,49.86l-.03,32.77Zm0,0" style="fill:#ff6767;"/><path d="M456.29,684.3c-43.48,0-86.4-9.08-124.18-26.26l13.6-29.83c33.54,15.25,71.79,23.31,110.63,23.31,116.73,0,212.28-71.61,213-159.62l32.8,.27c-.43,52.54-26.95,101.46-74.7,137.74-46.16,35.08-106.96,54.39-171.14,54.39h0ZM13.59,485.31H229.36v24.57H13.59v-24.57Zm0,0" style="fill:#ff6767;"/><path d="M231.07,509.97c-5.13,0-9.95-2.4-13.06-6.49-3.1-4.08-4.11-9.38-2.73-14.32L343.63,28.06c2.43-8.71,11.46-13.81,20.18-11.38,8.72,2.43,13.81,11.47,11.38,20.18L246.87,497.97c-1.97,7.09-8.43,12-15.8,12h0Zm0,0" style="fill:#ff6767;"/><rect x="38.17" y="442.74" width="211.78" height="24.58" style="fill:#ff6767;"/><path d="M450.07,626.15c-49.84,0-103.69-20.1-147.73-55.15-42.9-34.15-68.5-76.33-68.5-112.85h24.58c0,28.67,22.7,64.54,59.2,93.6,39.77,31.66,88.04,49.81,132.42,49.81s92.4-18.14,131.89-49.78c36.24-29.04,58.75-64.92,58.75-93.65h24.59c0,36.55-25.41,78.73-68,112.8-43.71,35.12-97.39,55.23-147.2,55.23h0Zm0,0" style="fill:#ff6767;"/><path d="M26.37,510.96L0,491.51,362.43,0l339.91,491.92-26.96,18.62L361.57,56.38,26.37,510.96Zm0,0" style="fill:#ff6767;"/><path d="M461.15,540.96c-18.1,0-30.73-10.78-30.73-26.22s7.81-34.21,23.89-58.57l6.84-10.4,6.84,10.4c16.07,24.37,23.89,43.53,23.89,58.57,0,14.22-14.06,26.22-30.73,26.22h0Zm0-64.8c-7.54,12.85-14.34,27.52-14.34,38.6,0,1.01,.4,9.83,14.34,9.83,8.08,0,14.34-5.28,14.34-9.83,0-6.8-2.67-18.77-14.34-38.62h0Zm-154.53,148.95c-1.82,0-3.63-.41-5.27-1.19-28.25-13.29-51.69-32.8-64.28-53.45-2.37-3.78-2.53-8.55-.4-12.49,2.12-3.93,6.2-6.41,10.67-6.5,4.47-.09,8.64,2.24,10.91,6.08,9.98,16.39,30.04,32.8,53.66,43.92,5.26,2.47,8.1,8.26,6.83,13.93-1.27,5.67-6.31,9.7-12.12,9.69h0Zm46.36-120.18c-18.09,0-30.73-10.78-30.73-26.22s7.81-34.21,23.89-58.57l6.84-10.4,6.84,10.4c16.07,24.37,23.89,43.53,23.89,58.57,0,14.21-14.07,26.22-30.73,26.22h0Zm0-64.8c-7.54,12.85-14.34,27.52-14.34,38.6,0,1.01,.4,9.83,14.34,9.83,8.08,0,14.34-5.28,14.34-9.83,0-6.81-2.68-18.77-14.34-38.61v.02Zm198.31,64.8c-18.09,0-30.73-10.78-30.73-26.22s7.82-34.21,23.89-58.57l6.84-10.4,6.84,10.4c16.07,24.37,23.89,43.53,23.89,58.57,0,14.21-14.07,26.22-30.73,26.22h0Zm0-64.8c-7.54,12.85-14.34,27.52-14.34,38.6,0,1.01,.4,9.83,14.34,9.83,8.08,0,14.34-5.28,14.34-9.83,0-6.81-2.67-18.77-14.34-38.61v.02Zm0,0" style="fill:#ff6767;"/></svg>